<svg version="1.1" id="Layer_1" xmlns="http://www.w3.org/2000/svg" xmlns:xlink="http://www.w3.org/1999/xlink" x="0px" y="0px"
	 width="100%" viewBox="0 0 50 50" enable-background="new 0 0 50 50" xml:space="preserve">
<path fill="#000000" opacity="1.000000" stroke="none" 
	d="
M10.239719,50.728401 
	C7.006642,51.000000 2.870912,52.165344 1.344442,50.668961 
	C-0.152008,49.202011 1.001415,45.026569 1.000909,42.039856 
	C0.998765,29.401234 1.040638,16.762358 0.961176,4.124236 
	C0.947460,1.942847 1.036687,0.872561 3.863907,0.909553 
	C18.661863,1.103171 33.464382,1.070689 48.263504,0.928184 
	C50.641029,0.905290 51.089153,1.420186 51.068043,3.752633 
	C50.934124,18.551910 50.892632,33.354450 51.092991,48.152229 
	C51.131832,51.020996 50.002739,51.048615 47.859577,51.035034 
	C36.219215,50.961266 24.578142,51.000000 12.468657,51.000000 
	C9.895821,44.683475 11.098153,38.218079 11.343806,31.832909 
	C11.434783,29.468195 14.068292,28.647753 16.065245,27.849800 
	C22.708792,25.195135 29.315777,22.452728 35.901546,19.660248 
	C37.218842,19.101694 39.169922,18.830660 39.202240,17.057455 
	C39.235973,15.206788 37.243420,15.038626 35.920704,14.503965 
	C30.831398,12.446802 25.905605,9.988316 20.720934,8.174860 
	C14.116623,5.864854 12.397946,6.959580 12.527603,13.825963 
	C12.759299,26.096207 10.623208,38.218025 10.239719,50.728401 
z"/>
<path fill="#E53935" opacity="1.000000" stroke="none" 
	d="
M10.333333,51.000000 
	C10.000224,36.399071 9.933702,21.797441 10.086739,7.198116 
	C10.105473,5.411067 8.208840,2.130368 13.822578,3.535112 
	C24.552158,6.220009 34.045765,11.666827 44.371498,15.099061 
	C45.568901,15.497071 46.694542,16.110973 48.332348,16.837103 
	C44.261951,19.904652 39.579716,20.810305 35.422981,22.722614 
	C29.075886,25.642605 22.472143,28.013016 15.938837,30.516203 
	C13.016356,31.635931 11.625034,33.235985 11.889314,36.698177 
	C12.228333,41.139481 11.765369,45.642006 11.823968,50.559074 
	C11.555555,51.000000 11.111111,51.000000 10.333333,51.000000 
z"/>
</svg>