<svg version="1.1" id="Layer_1" xmlns="http://www.w3.org/2000/svg" xmlns:xlink="http://www.w3.org/1999/xlink" x="0px" y="0px"
	 width="100%" viewBox="0 0 50 50" enable-background="new 0 0 50 50" xml:space="preserve">
<path fill="#000000" opacity="1.000000" stroke="none" 
	d="
M25.238129,50.745575 
	C18.032797,51.000000 11.064302,50.924568 4.099144,51.043873 
	C1.877892,51.081921 0.877783,50.900005 0.912667,48.125404 
	C1.098261,33.363907 1.108261,18.597355 0.906559,3.836279 
	C0.867299,0.963163 2.007586,0.923851 4.137560,0.965683 
	C9.443856,1.069897 14.753572,1.000000 20.530956,1.000000 
	C22.814028,2.575389 22.372272,4.150460 21.020639,5.748848 
	C19.820303,7.168321 18.955276,8.763146 18.743124,10.637692 
	C18.380854,13.838626 19.108967,16.667004 22.093031,18.330816 
	C24.922466,19.908413 27.891499,19.842402 30.545397,17.914667 
	C33.299351,15.914259 33.721703,13.025589 33.004681,9.883680 
	C32.666592,8.402212 31.898190,7.120526 31.003344,5.913627 
	C29.980688,4.534344 29.007854,3.158340 30.754906,1.250295 
	C36.806046,1.000000 42.614174,1.087977 48.416969,0.950638 
	C50.357750,0.904704 51.093342,1.085557 51.071945,3.395415 
	C50.932110,18.489840 50.919617,33.587044 51.080143,48.681057 
	C51.106503,51.159664 50.123005,51.056896 48.341045,51.034504 
	C41.540756,50.949047 34.738750,51.000000 27.468693,51.000000 
	C25.283644,47.178040 26.866270,43.222218 26.546957,39.336197 
	C26.317270,36.540916 26.653526,33.710289 25.925953,30.903616 
	C25.534182,35.663582 25.211563,40.426502 25.866283,45.201084 
	C26.114424,47.010658 26.610582,48.799934 25.238129,50.745575 
z"/>
<path fill="#E43935" opacity="1.000000" stroke="none" 
	d="
M30.545891,1.000000 
	C30.146013,3.548482 32.760990,3.915597 33.788105,5.189627 
	C37.545860,9.850737 36.922634,16.926863 32.220295,20.367107 
	C27.482725,23.833124 20.351971,22.554588 17.168880,17.668407 
	C14.822991,14.067366 15.613774,6.856174 18.897024,4.134058 
	C19.913797,3.291057 20.997732,2.590668 21.354107,1.225409 
	C24.030594,1.000000 27.061186,1.000000 30.545891,1.000000 
z"/>
<path fill="#E53935" opacity="1.000000" stroke="none" 
	d="
M25.333332,51.000000 
	C21.764513,43.000050 23.360943,34.608555 22.994085,26.375174 
	C22.904831,24.372036 23.022337,22.947363 25.770575,22.918617 
	C28.514278,22.889917 29.101917,23.945503 29.042463,26.415585 
	C28.903080,32.206612 28.911036,38.005188 29.037273,43.796829 
	C29.096153,46.498142 27.846592,48.491169 26.649611,50.721684 
	C26.555555,51.000000 26.111111,51.000000 25.333332,51.000000 
z"/>
</svg>